<?xml version="1.0" standalone="no"?><!DOCTYPE svg PUBLIC "-//W3C//DTD SVG 1.1//EN" "http://www.w3.org/Graphics/SVG/1.1/DTD/svg11.dtd"><svg height="240" node-id="1" sillyvg="true" template-height="240" template-width="240" version="1.1" viewBox="0 0 240 240" width="240" xmlns="http://www.w3.org/2000/svg" xmlns:xlink="http://www.w3.org/1999/xlink"><defs node-id="88"><clipPath id="a327eb18-2a86-4d7c-889e-78e4d8b03c6d" node-id="5"><path d="M 121.00 145.71 L 171.50 145.71 L 171.50 188.21 L 121.00 188.21 Z" fill="#000000" fill-rule="nonzero" node-id="91" stroke="none" target-height="42.5" target-width="50.5" target-x="121" target-y="145.71"></path></clipPath><clipPath id="e0631c0d-7947-492c-8d28-bca16d515ecc" node-id="7"><path d="M 196.69 31.74 L 108.81 39.88 C 108.10 39.95 107.40 40.12 106.73 40.39 L 72.00 56.71 C 68.38 58.17 66.94 59.71 67.63 63.92 L 77.63 131.72 C 78.39 136.31 82.29 139.43 86.50 138.82 L 187.00 129.46 C 189.13 129.13 191.02 127.93 192.24 126.15 L 210.35 102.67 C 211.55 100.93 212.14 98.84 212.00 96.73 L 205.30 39.84 C 205.01 35.22 201.52 31.71 197.38 31.71 C 197.16 31.71 196.93 31.71 196.71 31.71" fill="#000000" fill-rule="nonzero" node-id="95" stroke="none" target-height="107.71999" target-width="145.19576" target-x="66.94" target-y="31.71"></path></clipPath></defs><path d="M 72.14 106.17 L 72.14 106.17 C 73.13 106.01 73.81 105.08 73.66 104.08 L 71.66 91.33 C 71.45 90.38 70.55 89.76 69.59 89.91 C 68.64 90.06 67.96 90.93 68.05 91.89 L 70.05 104.65 C 70.21 105.64 71.14 106.32 72.14 106.17" fill="#ffffff" fill-rule="nonzero" node-id="100" stroke="none" target-height="16.556435" target-width="5.8498154" target-x="67.960335" target-y="89.76372"></path><path d="M 72.14 106.17 L 72.14 106.17 C 73.13 106.01 73.81 105.08 73.66 104.08 L 71.66 91.33 C 71.45 90.38 70.55 89.76 69.59 89.91 C 68.64 90.06 67.96 90.93 68.05 91.89 L 70.05 104.65 C 70.21 105.64 71.14 106.32 72.14 106.17 Z" fill="none" node-id="102" stroke="#16326f" stroke-linecap="round" stroke-width="2.4" target-height="16.556435" target-width="5.8498154" target-x="67.960335" target-y="89.76372"></path><path d="M 101.00 153.71 C 101.00 153.71 80.85 164.55 87.26 175.66 C 93.67 186.77 117.63 173.88 117.63 173.88 L 122.00 142.71 C 122.00 142.71 115.00 143.71 101.00 153.71" fill="#ffffff" fill-rule="nonzero" node-id="104" stroke="none" target-height="44.059998" target-width="41.15" target-x="80.85" target-y="142.71"></path><path d="M 101.00 153.71 C 101.00 153.71 80.85 164.55 87.26 175.66 C 93.67 186.77 117.63 173.88 117.63 173.88 L 122.00 142.71 C 122.00 142.71 115.00 143.71 101.00 153.71 Z" fill="none" node-id="106" stroke="#16326f" stroke-linecap="butt" stroke-width="2.15" target-height="44.059998" target-width="41.15" target-x="80.85" target-y="142.71"></path><path d="M 151.76 161.02 L 149.78 167.30 L 116.92 138.50 L 130.49 137.02 L 151.76 161.02 Z" fill="#1c56a6" fill-rule="nonzero" node-id="108" stroke="none" target-height="30.279999" target-width="34.839996" target-x="116.92" target-y="137.02"></path><path d="M 116.91 138.50 L 149.78 167.30 C 138.94 170.09 125.65 180.05 125.65 180.05 C 105.65 172.66 101.34 152.99 101.34 152.99 C 101.34 152.99 110.50 145.21 116.91 138.50" fill="#ffffff" fill-rule="nonzero" node-id="110" stroke="none" target-height="41.550003" target-width="48.440002" target-x="101.34" target-y="138.5"></path><path d="M 101.34 137.02 L 151.76 137.02 L 151.76 180.06 L 101.34 180.06 Z" fill="none" node-id="112" stroke="none" target-height="43.039993" target-width="50.42" target-x="101.34" target-y="137.02"></path><path d="M 101.34 137.02 L 151.76 137.02 L 151.76 180.06 L 101.34 180.06 Z" fill="none" node-id="114" stroke="none" target-height="43.039993" target-width="50.42" target-x="101.34" target-y="137.02"></path><path d="M 149.78 167.30 C 138.94 170.09 125.65 180.05 125.65 180.05 C 105.65 172.66 101.34 152.99 101.34 152.99 C 101.34 152.99 110.50 145.21 116.92 138.50" fill="none" node-id="116" stroke="#16326f" stroke-linecap="round" stroke-width="2.06" target-height="41.550003" target-width="48.440002" target-x="101.34" target-y="138.5"></path><path d="M 13.82 186.35 L 14.11 187.81 C 15.58 195.16 20.98 201.11 28.16 203.27 C 39.72 206.75 58.25 209.94 77.16 203.27 C 84.50 200.67 89.71 194.10 90.57 186.36 Z" fill="#ffffff" fill-rule="nonzero" node-id="118" stroke="none" target-height="23.589996" target-width="76.75" target-x="13.82" target-y="186.35"></path><path d="M 13.82 186.35 L 14.11 187.81 C 15.58 195.16 20.98 201.11 28.16 203.27 C 39.72 206.75 58.25 209.94 77.16 203.27 C 84.50 200.67 89.71 194.10 90.57 186.36 Z" fill="none" node-id="120" stroke="#16326f" stroke-linecap="round" stroke-width="2.28" target-height="23.589996" target-width="76.75" target-x="13.82" target-y="186.35"></path><path d="M 90.53 185.73 C 90.53 178.56 73.36 172.73 52.17 172.73 C 30.98 172.73 13.82 178.55 13.82 185.73 C 13.82 192.91 30.99 198.73 52.17 198.73 C 73.35 198.73 90.53 192.91 90.53 185.73" fill="#ffffff" fill-rule="nonzero" node-id="122" stroke="none" target-height="26" target-width="76.71" target-x="13.82" target-y="172.73"></path><path d="M 63.31 187.00 C 63.31 189.39 58.05 191.33 51.56 191.33 C 45.07 191.33 39.80 189.36 39.80 187.00 C 39.80 184.64 45.06 182.67 51.56 182.67 C 58.06 182.67 63.31 184.61 63.31 187.00" fill="#dedede" fill-rule="nonzero" node-id="124" stroke="none" target-height="8.660004" target-width="23.510002" target-x="39.8" target-y="182.67"></path><path d="M 13.82 185.73 C 13.82 192.91 30.99 198.73 52.17 198.73 C 73.35 198.73 90.53 192.92 90.53 185.73 C 90.53 178.54 73.36 172.73 52.17 172.73 C 30.98 172.73 13.82 178.55 13.82 185.73" fill="none" node-id="126" stroke="none" target-height="26" target-width="76.71" target-x="13.82" target-y="172.73"></path><path d="M 90.53 185.73 C 90.53 178.56 73.36 172.73 52.17 172.73 C 30.98 172.73 13.82 178.55 13.82 185.73 C 13.82 192.91 30.99 198.73 52.17 198.73 C 73.35 198.73 90.53 192.90 90.53 185.73 Z" fill="none" node-id="128" stroke="#16326f" stroke-linecap="round" stroke-width="2.28" target-height="26" target-width="76.71" target-x="13.82" target-y="172.73"></path><path d="M 58.36 178.93 C 58.36 184.40 53.93 188.83 48.46 188.83 C 42.99 188.83 38.56 184.40 38.56 178.93 C 38.56 173.46 42.99 169.03 48.46 169.03 C 51.09 169.03 53.61 170.07 55.46 171.93 C 57.32 173.78 58.36 176.30 58.36 178.93" fill="#ffffff" fill-rule="nonzero" node-id="130" stroke="#16326f" stroke-linecap="butt" stroke-width="1.63" target-height="19.802658" target-width="19.802654" target-x="38.56" target-y="169.02734"></path><path d="M 38.56 178.93 C 38.56 184.40 42.99 188.83 48.46 188.83 C 53.93 188.83 58.36 184.40 58.36 178.93 C 58.36 173.46 53.93 169.03 48.46 169.03 C 42.99 169.03 38.56 173.46 38.56 178.93" fill="none" node-id="132" stroke="none" target-height="19.800003" target-width="19.8" target-x="38.56" target-y="169.03"></path><path d="M 55.72 177.29 C 55.22 177.98 53.97 177.93 52.93 177.18 C 51.89 176.43 49.93 173.72 50.41 173.03 C 50.89 172.34 52.15 172.38 53.19 173.13 C 54.23 173.88 56.19 176.59 55.72 177.29" fill="#16326f" fill-rule="nonzero" node-id="134" stroke="none" target-height="5.6399994" target-width="6.2599983" target-x="49.93" target-y="172.34"></path><path d="M 53.41 175.21 C 53.98 174.01 54.67 172.87 55.48 171.82 C 56.29 170.75 57.22 169.77 58.25 168.91 C 59.30 168.03 60.47 167.32 61.74 166.81 C 63.02 166.31 64.37 166.01 65.74 165.93 C 66.08 165.91 66.38 166.16 66.41 166.50 C 66.44 166.84 66.19 167.14 65.85 167.17 L 65.74 167.17 C 64.48 167.14 63.22 167.31 62.01 167.68 C 60.79 168.08 59.63 168.66 58.58 169.40 C 57.52 170.16 56.55 171.03 55.68 172.01 C 54.80 172.99 54.03 174.07 53.37 175.21" fill="#16326f" fill-rule="nonzero" node-id="136" stroke="none" target-height="9.303192" target-width="13.068935" target-x="53.37" target-y="165.90681"></path><path d="M 65.78 166.55 C 65.78 167.24 66.06 167.79 66.40 167.79 C 66.74 167.79 67.02 167.24 67.02 166.55 C 67.02 165.86 66.74 165.32 66.40 165.32 C 66.06 165.32 65.78 165.87 65.78 166.55" fill="#17326f" fill-rule="nonzero" node-id="138" stroke="none" target-height="2.469986" target-width="1.2399979" target-x="65.78" target-y="165.32"></path><path d="M 102.73 202.48 C 102.73 202.48 83.45 209.10 93.73 217.92 C 100.66 223.92 111.73 221.80 118.13 219.82 C 121.26 218.86 124.65 219.35 127.38 221.14 C 134.67 225.96 151.18 231.52 179.82 225.64 C 215.49 218.32 219.20 216.08 225.38 202.64 C 232.56 187.07 188.81 190.34 188.81 190.34 Z" fill="#eeeeee" fill-rule="nonzero" node-id="140" stroke="none" target-height="44.449997" target-width="149.11" target-x="83.45" target-y="187.07"></path><path d="M 90.71 190.06 L 226.17 190.06 L 226.17 228.17 L 90.71 228.17 Z" fill="none" node-id="142" stroke="none" target-height="38.11" target-width="135.45999" target-x="90.71" target-y="190.06"></path><path d="M 217.41 170.14 C 218.07 175.65 220.01 181.57 218.01 186.71 C 211.25 204.00 199.48 206.60 186.51 212.21 C 183.77 213.39 180.51 214.21 175.89 215.81 C 164.27 219.81 139.71 226.38 119.50 210.20 C 119.50 210.20 101.50 197.71 106.50 163.71 C 109.08 152.10 110.50 135.20 121.09 126.71 C 123.66 124.71 130.37 122.55 133.45 120.71 C 146.00 113.71 160.99 107.71 176.00 109.71 C 176.00 109.71 211.50 114.22 216.50 162.22 C 216.78 164.97 217.08 167.40 217.41 170.15" fill="#ffffff" fill-rule="nonzero" node-id="144" stroke="none" target-height="118.670006" target-width="118.509995" target-x="101.5" target-y="107.71"></path><path d="M 105.62 109.32 L 218.11 109.32 L 218.11 220.59 L 105.62 220.59 Z" fill="none" node-id="146" stroke="none" target-height="111.27" target-width="112.49" target-x="105.62" target-y="109.32"></path><path d="M 105.62 109.32 L 218.11 109.32 L 218.11 220.59 L 105.62 220.59 Z" fill="none" node-id="148" stroke="none" target-height="111.27" target-width="112.49" target-x="105.62" target-y="109.32"></path><path d="M 106.50 163.71 C 109.08 152.10 110.50 135.20 121.09 126.71 C 123.66 124.71 130.37 122.55 133.45 120.71 C 146.00 113.71 160.99 107.71 176.00 109.71 C 176.00 109.71 211.50 114.22 216.50 162.22 C 216.78 164.97 217.08 167.40 217.41 170.15 C 218.07 175.66 219.51 181.42 218.01 186.72 C 214.35 199.60 199.48 206.61 186.51 212.22 C 183.77 213.40 180.51 214.22 175.89 215.82 C 164.27 219.82 139.71 226.39 119.50 210.21" fill="none" node-id="150" stroke="#16326f" stroke-linecap="round" stroke-width="2" target-height="118.68" target-width="113.009995" target-x="106.5" target-y="107.71"></path><path d="M 119.50 210.20 C 119.50 210.20 101.50 197.71 106.50 163.71" fill="none" node-id="152" stroke="#16326f" stroke-linecap="round" stroke-width="2" target-height="46.48999" target-width="18" target-x="101.5" target-y="163.71"></path><path d="M 113.98 147.21 L 111.00 174.68 L 115.25 185.21 L 129.00 174.68 L 126.02 147.21" fill="#ffffff" fill-rule="nonzero" node-id="154" stroke="none" target-height="38" target-width="18" target-x="111" target-y="147.21"></path><path d="M 113.98 147.21 L 111.00 174.68 L 115.25 185.21 L 129.00 174.68 L 126.02 147.21" fill="none" node-id="156" stroke="#16326f" stroke-linecap="round" stroke-width="1.71" target-height="38" target-width="18" target-x="111" target-y="147.21"></path><path d="M 121.41 135.57 L 111.23 142.71 L 113.75 136.28 L 121.41 135.57 Z" fill="#ffffff" fill-rule="nonzero" node-id="158" stroke="none" target-height="7.1399994" target-width="10.18" target-x="111.23" target-y="135.57"></path><path d="M 121.41 135.57 L 111.23 142.71 L 113.75 136.28 L 121.41 135.57 Z" fill="none" node-id="160" stroke="#16326f" stroke-linecap="round" stroke-width="1.49" target-height="7.1399994" target-width="10.18" target-x="111.23" target-y="135.57"></path><path d="M 127.12 137.54 C 126.75 140.76 126.39 143.98 126.02 147.21 L 114.00 147.21 L 112.90 137.54 L 121.10 135.28 Z" fill="#ffffff" fill-rule="nonzero" node-id="162" stroke="none" target-height="11.930008" target-width="14.220001" target-x="112.9" target-y="135.28"></path><path d="M 127.12 137.54 C 126.75 140.76 126.39 143.98 126.02 147.21 L 114.00 147.21 L 112.90 137.54 L 121.10 135.28 Z" fill="none" node-id="164" stroke="#16326f" stroke-linecap="round" stroke-width="1.71" target-height="11.930008" target-width="14.220001" target-x="112.9" target-y="135.28"></path><path d="M 143.20 148.49 L 163.30 178.49 C 151.90 180.91 143.80 192.30 139.76 198.33 C 137.66 201.58 134.35 203.85 130.56 204.65 C 126.98 205.34 120.22 207.07 113.27 201.72 C 109.02 198.31 108.28 192.14 111.60 187.82 C 113.43 185.38 117.60 181.58 122.11 173.98 C 132.41 156.81 143.20 148.47 143.20 148.47" fill="#ffffff" fill-rule="nonzero" node-id="166" stroke="none" target-height="58.600006" target-width="55.020355" target-x="108.27965" target-y="148.47"></path><path d="M 109.53 148.49 L 163.30 148.49 L 163.30 205.50 L 109.53 205.50 Z" fill="none" node-id="168" stroke="none" target-height="57.009995" target-width="53.770004" target-x="109.53" target-y="148.49"></path><path d="M 109.53 148.49 L 163.30 148.49 L 163.30 205.50 L 109.53 205.50 Z" fill="none" node-id="170" stroke="none" target-height="57.009995" target-width="53.770004" target-x="109.53" target-y="148.49"></path><path d="M 163.00 175.94 C 151.61 178.36 143.84 192.32 139.80 198.35 C 137.70 201.60 134.39 203.87 130.60 204.67 C 127.02 205.36 120.27 207.09 113.31 201.74 C 109.06 198.33 108.32 192.16 111.64 187.84 C 113.47 185.40 117.64 181.60 122.15 174.00 C 132.45 156.83 143.24 148.49 143.24 148.49" fill="none" node-id="172" stroke="#16326f" stroke-linecap="round" stroke-width="2" target-height="58.59999" target-width="54.68035" target-x="108.31965" target-y="148.49"></path><g node-id="252"><g clip-path="url(#a327eb18-2a86-4d7c-889e-78e4d8b03c6d)" group-id="1" id="sillyvg_g_0" node-id="174"><path d="M 171.50 162.21 L 171.50 168.79 L 131.50 151.21 L 144.00 145.71 L 171.50 162.21 Z" fill="#ffffff" fill-rule="nonzero" group-id="1" node-id="176" stroke="none" target-height="23.079987" target-width="40" target-x="131.5" target-y="145.71"></path><path d="M 131.50 151.21 L 171.50 168.79 C 162.00 174.71 152.32 188.21 152.32 188.21 C 131.05 187.21 121.00 169.71 121.00 169.71 C 121.00 169.71 124.00 157.71 131.50 151.21" fill="#ffffff" fill-rule="nonzero" group-id="1" node-id="178" stroke="none" target-height="37" target-width="50.5" target-x="121" target-y="151.21"></path><path d="M 121.00 145.71 L 171.50 145.71 L 171.50 188.21 L 121.00 188.21 Z" fill="none" group-id="1" node-id="180" stroke="none" target-height="42.5" target-width="50.5" target-x="121" target-y="145.71"></path></g></g><path d="M 171.50 168.79 C 162.00 174.71 152.32 188.21 152.32 188.21 C 131.05 187.21 121.00 169.71 121.00 169.71 C 121.00 169.71 124.00 157.71 131.50 151.21" fill="none" node-id="183" stroke="#16326f" stroke-linecap="round" stroke-width="2.06" target-height="37" target-width="50.5" target-x="121" target-y="151.21"></path><path d="M 123.51 135.28 L 131.77 145.72 L 156.57 132.93" fill="#ffffff" fill-rule="nonzero" node-id="185" stroke="none" target-height="12.790009" target-width="33.060005" target-x="123.51" target-y="132.93"></path><path d="M 123.51 135.28 L 131.77 145.72 L 156.57 132.93" fill="none" node-id="187" stroke="#16326f" stroke-linecap="round" stroke-width="1.49" target-height="12.790009" target-width="33.060005" target-x="123.51" target-y="132.93"></path><path d="M 72.00 56.71 L 106.73 40.39 C 107.40 40.12 108.10 39.95 108.81 39.88 L 196.69 31.74 C 201.11 31.33 204.98 34.97 205.28 39.84 L 212.00 96.73 C 212.14 98.84 211.56 100.93 210.36 102.67 L 192.25 126.15 C 191.03 127.93 189.14 129.13 187.01 129.46 L 86.46 138.82 C 82.25 139.43 78.35 136.31 77.59 131.72 L 67.59 63.92 C 66.90 59.76 68.34 58.17 71.96 56.71" fill="#ffffff" fill-rule="nonzero" node-id="189" stroke="none" target-height="108.09999" target-width="145.23868" target-x="66.9" target-y="31.33"></path><g clip-path="url(#e0631c0d-7947-492c-8d28-bca16d515ecc)" group-id="2" id="sillyvg_g_1" node-id="191"><path d="M 67.50 59.21 L 179.50 49.21 L 189.50 128.21" fill="none" group-id="2" node-id="193" stroke="#16326f" stroke-linecap="round" stroke-width="2" target-height="79.00001" target-width="122" target-x="67.5" target-y="49.21"></path><path d="M 201.82 33.11 L 180.50 49.21" fill="none" group-id="2" node-id="195" stroke="#16326f" stroke-linecap="round" stroke-width="2" target-height="16.099998" target-width="21.320007" target-x="180.5" target-y="33.11"></path></g><path d="M 72.00 56.71 L 106.73 40.39 C 107.40 40.12 108.10 39.95 108.81 39.88 L 196.69 31.74 C 201.11 31.33 204.98 34.97 205.28 39.84 L 212.00 96.73 C 212.14 98.84 211.56 100.93 210.36 102.67 L 192.25 126.15 C 191.03 127.93 189.14 129.13 187.01 129.46 L 86.46 138.82 C 82.25 139.43 78.35 136.31 77.59 131.72 L 67.59 63.92 C 66.94 59.76 68.38 58.17 72.00 56.71 Z" fill="none" node-id="198" stroke="#16326f" stroke-linecap="round" stroke-width="2" target-height="108.09999" target-width="145.19867" target-x="66.94" target-y="31.33"></path><path d="M 201.57 95.54 L 203.30 95.34 C 205.87 95.04 207.71 92.72 207.42 90.15 L 204.65 65.90 C 204.35 63.33 202.02 61.48 199.45 61.77 L 197.72 61.97 C 195.15 62.27 193.31 64.59 193.59 67.16 L 196.37 91.41 C 196.67 93.98 199.00 95.83 201.57 95.54" fill="#ffffff" fill-rule="nonzero" node-id="200" stroke="none" target-height="34.344463" target-width="14.404297" target-x="193.30867" target-y="61.48277"></path><path d="M 201.57 95.54 L 203.30 95.34 C 205.87 95.04 207.71 92.72 207.42 90.15 L 204.65 65.90 C 204.35 63.33 202.02 61.48 199.45 61.77 L 197.72 61.97 C 195.15 62.27 193.31 64.59 193.59 67.16 L 196.37 91.41 C 196.67 93.98 199.00 95.83 201.57 95.54 Z" fill="none" node-id="202" stroke="#16326f" stroke-linecap="round" stroke-width="2.39" target-height="34.344463" target-width="14.404297" target-x="193.30867" target-y="61.48277"></path><path d="M 205.79 87.00 L 205.79 87.00 C 206.78 86.88 207.49 85.99 207.40 85.00 L 205.93 72.17 C 205.90 71.49 205.49 70.89 204.87 70.60 C 204.25 70.32 203.52 70.40 202.99 70.81 C 202.45 71.23 202.18 71.91 202.30 72.58 L 203.77 85.41 C 203.89 86.40 204.78 87.12 205.77 87.02" fill="#ffffff" fill-rule="nonzero" node-id="204" stroke="none" target-height="16.803185" target-width="5.3118134" target-x="202.18217" target-y="70.316315"></path><path d="M 205.79 87.00 L 205.79 87.00 C 206.78 86.88 207.49 85.99 207.40 85.00 L 205.93 72.17 C 205.90 71.49 205.49 70.89 204.87 70.60 C 204.25 70.32 203.52 70.40 202.99 70.81 C 202.45 71.23 202.18 71.91 202.30 72.58 L 203.77 85.41 C 203.90 86.40 204.80 87.11 205.79 87.00 Z" fill="none" node-id="206" stroke="#16326f" stroke-linecap="round" stroke-width="2.4" target-height="16.795471" target-width="5.3118134" target-x="202.18217" target-y="70.316315"></path><path d="M 165.11 56.19 L 121.55 64.81 C 121.23 64.91 120.89 64.95 120.55 64.93 L 80.33 63.40 C 78.33 63.23 76.75 65.19 77.01 67.51 L 86.40 130.76 C 86.65 133.08 88.61 134.65 90.52 134.06 L 126.85 123.33 C 127.19 123.22 127.55 123.18 127.90 123.21 L 174.27 125.84 C 176.27 126.00 177.85 124.05 177.59 121.73 L 169.24 59.49 C 168.98 57.17 167.02 55.60 165.11 56.19" fill="#ffffff" fill-rule="nonzero" node-id="208" stroke="none" target-height="79.049995" target-width="101.100006" target-x="76.75" target-y="55.6"></path><path d="M 165.11 56.19 L 121.55 64.81 C 121.23 64.91 120.89 64.95 120.55 64.93 L 80.33 63.40 C 78.33 63.23 76.75 65.19 77.01 67.51 L 86.40 130.76 C 86.65 133.08 88.61 134.65 90.52 134.06 L 126.85 123.33 C 127.19 123.22 127.55 123.18 127.90 123.21 L 174.27 125.84 C 176.27 126.00 177.85 124.05 177.59 121.73 L 169.24 59.49 C 169.00 57.17 167.00 55.60 165.11 56.19 Z" fill="none" node-id="210" stroke="#16326f" stroke-linecap="butt" stroke-width="1.63" target-height="79.049995" target-width="101.100006" target-x="76.75" target-y="55.6"></path><path d="M 147.00 11.87 C 139.87 12.34 134.46 18.48 134.88 25.61 C 134.08 18.53 127.80 13.36 120.69 13.94 C 113.59 14.52 108.23 20.63 108.58 27.75 C 109.32 34.87 115.68 40.05 122.80 39.34 C 126.36 39.08 129.68 37.40 132.00 34.69 L 132.86 45.18 L 136.54 44.88 L 140.22 44.58 L 139.36 34.09 C 142.08 36.38 145.60 37.50 149.15 37.20 C 156.28 36.72 161.68 30.59 161.26 23.46 C 160.52 16.32 154.14 11.14 147.00 11.87 M 122.40 34.44 C 120.30 34.66 118.21 34.03 116.58 32.70 C 114.94 31.36 113.91 29.44 113.70 27.34 C 113.52 23.00 116.80 19.30 121.12 18.94 C 125.45 18.58 129.29 21.69 129.83 26.00 C 129.96 28.10 129.25 30.17 127.86 31.75 C 126.47 33.33 124.50 34.29 122.40 34.42 M 148.70 32.28 C 144.34 32.69 140.47 29.52 140.00 25.17 C 139.85 20.84 143.12 17.16 147.44 16.81 C 151.75 16.46 155.58 19.56 156.13 23.86 C 156.37 28.23 153.06 31.98 148.70 32.28" fill="#ffffff" fill-rule="nonzero" node-id="212" stroke="none" target-height="34.04373" target-width="53.456635" target-x="108.225784" target-y="11.1362705"></path><path d="M 147.00 11.87 C 139.87 12.34 134.46 18.48 134.88 25.61 C 134.08 18.53 127.80 13.36 120.69 13.94 C 113.59 14.52 108.23 20.63 108.58 27.75 C 109.32 34.87 115.68 40.05 122.80 39.34 C 126.36 39.08 129.68 37.40 132.00 34.69 L 132.86 45.18 L 136.54 44.88 L 140.22 44.58 L 139.36 34.09 C 142.08 36.38 145.60 37.50 149.15 37.20 C 156.28 36.72 161.68 30.59 161.26 23.46 C 160.52 16.32 154.14 11.14 147.00 11.87 Z M 122.40 34.44 C 120.30 34.66 118.21 34.03 116.58 32.70 C 114.94 31.36 113.91 29.44 113.70 27.34 C 113.52 23.00 116.80 19.30 121.12 18.94 C 125.45 18.58 129.29 21.69 129.83 26.00 C 129.97 28.11 129.26 30.18 127.87 31.76 C 126.47 33.35 124.51 34.31 122.40 34.44 Z M 148.70 32.30 C 144.34 32.71 140.47 29.54 140.00 25.19 C 139.85 20.86 143.12 17.18 147.44 16.83 C 151.75 16.48 155.58 19.58 156.13 23.88 C 156.37 28.25 153.06 32.00 148.70 32.30 Z" fill="none" node-id="214" stroke="#16326f" stroke-linecap="round" stroke-width="2" target-height="34.04373" target-width="53.456635" target-x="108.225784" target-y="11.1362705"></path><path d="M 105.26 103.00 C 105.41 104.47 101.63 106.00 96.84 106.52 C 92.05 107.04 88.03 106.18 87.84 104.71 C 87.65 103.24 91.47 101.71 96.26 101.20 C 101.05 100.69 105.07 101.53 105.26 103.00" fill="#ececec" fill-rule="nonzero" node-id="216" stroke="none" target-height="6.3499985" target-width="17.760002" target-x="87.65" target-y="100.69"></path><path d="M 166.00 97.00 C 166.14 98.47 162.37 100.00 157.57 100.51 C 152.77 101.02 148.77 100.18 148.63 98.71 C 148.49 97.24 152.25 95.71 157.05 95.19 C 161.85 94.67 165.85 95.53 166.00 97.00" fill="#ececec" fill-rule="nonzero" node-id="218" stroke="none" target-height="6.3499985" target-width="17.649994" target-x="148.49" target-y="94.67"></path><path d="M 156.57 88.00 C 156.96 94.16 152.78 99.44 147.25 99.79 C 141.72 100.14 136.90 95.43 136.51 89.27 C 136.12 83.11 140.29 77.84 145.83 77.48 C 151.37 77.12 156.17 81.84 156.57 88.00" fill="#16326f" fill-rule="nonzero" node-id="220" stroke="none" target-height="23.019997" target-width="20.840012" target-x="136.12" target-y="77.12"></path><path d="M 152.88 88.24 C 153.13 92.13 150.49 95.47 146.98 95.69 C 143.47 95.91 140.44 92.94 140.19 89.04 C 139.94 85.14 142.59 81.81 146.09 81.58 C 149.59 81.35 152.63 84.34 152.88 88.24" fill="#2a5eab" fill-rule="nonzero" node-id="222" stroke="none" target-height="14.560005" target-width="13.190002" target-x="139.94" target-y="81.35"></path><path d="M 150.84 88.36 C 150.74 90.70 148.81 92.54 146.48 92.52 C 144.14 92.51 142.23 90.64 142.17 88.30 C 142.10 85.97 143.90 84.00 146.23 83.85 C 148.74 83.83 150.80 85.85 150.84 88.36" fill="#16326f" fill-rule="nonzero" node-id="224" stroke="none" target-height="8.703033" target-width="8.740845" target-x="142.09915" target-y="83.83324"></path><path d="M 152.94 82.75 C 153.04 84.34 151.83 85.70 150.24 85.80 C 148.66 85.90 147.29 84.69 147.19 83.11 C 147.09 81.52 148.29 80.15 149.88 80.05 C 150.64 80.00 151.40 80.26 151.97 80.76 C 152.54 81.27 152.89 81.99 152.94 82.75" fill="#ffffff" fill-rule="nonzero" node-id="226" stroke="none" target-height="5.895897" target-width="5.9451904" target-x="147.09084" target-y="80.00074"></path><path d="M 142.07 95.75 C 141.17 95.37 140.45 94.65 140.07 93.75 C 139.80 93.07 139.84 92.43 140.93 92.13 C 142.02 91.83 142.29 93.79 144.84 93.73 C 145.26 93.77 145.62 94.07 145.75 94.48 C 145.87 94.88 145.74 95.33 145.41 95.60 C 144.70 96.40 143.41 96.32 142.07 95.75" fill="#ffffff" fill-rule="nonzero" node-id="228" stroke="none" target-height="4.5699997" target-width="6.0711975" target-x="139.8" target-y="91.83"></path><path d="M 114.85 92.00 C 115.24 98.16 111.07 103.44 105.53 103.79 C 99.99 104.14 95.18 99.40 94.79 93.24 C 94.40 87.08 98.58 81.81 104.11 81.46 C 109.64 81.11 114.46 85.81 114.85 92.00" fill="#16326f" fill-rule="nonzero" node-id="230" stroke="none" target-height="23.029999" target-width="20.839996" target-x="94.4" target-y="81.11"></path><path d="M 111.16 92.21 C 111.41 96.10 108.77 99.44 105.27 99.66 C 101.77 99.88 98.73 96.91 98.48 93.00 C 98.23 89.09 100.87 85.77 104.37 85.55 C 107.87 85.33 110.92 88.30 111.16 92.20" fill="#2a5eab" fill-rule="nonzero" node-id="232" stroke="none" target-height="14.549995" target-width="13.18" target-x="98.23" target-y="85.33"></path><path d="M 109.13 92.33 C 109.03 94.67 107.10 96.51 104.77 96.49 C 102.43 96.48 100.52 94.61 100.46 92.27 C 100.39 89.94 102.19 87.97 104.52 87.82 C 107.03 87.81 109.09 89.82 109.13 92.33" fill="#16326f" fill-rule="nonzero" node-id="234" stroke="none" target-height="8.697594" target-width="8.740837" target-x="100.38916" target-y="87.80868"></path><path d="M 111.22 86.72 C 111.32 88.31 110.11 89.67 108.52 89.77 C 106.94 89.87 105.57 88.66 105.47 87.08 C 105.37 85.49 106.57 84.12 108.16 84.02 C 108.92 83.97 109.68 84.23 110.25 84.73 C 110.82 85.24 111.17 85.96 111.22 86.72" fill="#ffffff" fill-rule="nonzero" node-id="236" stroke="none" target-height="5.895897" target-width="5.945198" target-x="105.37083" target-y="83.97074"></path><path d="M 100.35 99.72 C 99.45 99.34 98.73 98.62 98.35 97.72 C 98.08 97.04 98.12 96.40 99.21 96.10 C 100.45 95.76 100.58 97.76 103.12 97.71 C 103.55 97.74 103.91 98.03 104.04 98.44 C 104.17 98.85 104.03 99.30 103.70 99.57 C 102.99 100.37 101.70 100.29 100.35 99.72" fill="#ffffff" fill-rule="nonzero" node-id="238" stroke="none" target-height="4.6100006" target-width="6.085968" target-x="98.08" target-y="95.76"></path><path d="M 117.00 108.71 C 117.00 108.71 125.00 109.71 125.00 99.71 C 125.00 99.71 127.00 107.71 136.00 105.71" fill="none" node-id="240" stroke="#16326f" stroke-linecap="round" stroke-width="2" target-height="10" target-width="19" target-x="117" target-y="99.71"></path><path d="M 103.00 75.71 C 103.00 75.71 110.00 75.71 111.00 71.71" fill="none" node-id="242" stroke="#16326f" stroke-linecap="round" stroke-width="2" target-height="4" target-width="8" target-x="103" target-y="71.71"></path><path d="M 144.00 72.71 C 144.00 72.71 137.00 73.71 136.00 69.71" fill="none" node-id="244" stroke="#16326f" stroke-linecap="round" stroke-width="2" target-height="4" target-width="8" target-x="136" target-y="69.71"></path><path d="M 144.00 110.21 C 144.00 111.59 143.55 112.71 143.00 112.71 C 142.45 112.71 142.00 111.59 142.00 110.21 C 142.00 108.83 142.45 107.71 143.00 107.71 C 143.55 107.71 144.00 108.83 144.00 110.21" fill="#ececec" fill-rule="nonzero" node-id="246" stroke="none" target-height="5" target-width="2" target-x="142" target-y="107.71"></path><path d="M 139.50 109.54 C 139.03 110.23 138.43 110.63 138.16 110.45 C 137.89 110.27 138.04 109.56 138.50 108.87 C 138.96 108.18 139.57 107.78 139.84 107.97 C 140.11 108.16 139.96 108.86 139.50 109.54" fill="#ececec" fill-rule="nonzero" node-id="248" stroke="none" target-height="2.8499985" target-width="2.2200012" target-x="137.89" target-y="107.78"></path><path d="M 112.20 110.42 C 111.50 111.12 110.61 111.36 110.20 110.95 C 109.79 110.54 110.04 109.66 110.73 108.95 C 111.42 108.24 112.32 108.01 112.73 108.42 C 113.14 108.83 112.89 109.71 112.20 110.42" fill="#ececec" fill-rule="nonzero" node-id="250" stroke="none" target-height="3.3499985" target-width="3.3499985" target-x="109.79" target-y="108.01"></path></svg>